<svg width="24" height="25" viewBox="0 0 24 25" fill="none" xmlns="http://www.w3.org/2000/svg">
<path d="M19.4802 3.32043L19.7602 3.89042C19.9002 4.17042 20.2502 4.43043 20.5602 4.49043L20.9402 4.55043C22.0802 4.74043 22.3502 5.58043 21.5302 6.41043L21.1802 6.76042C20.9502 7.00042 20.8202 7.46042 20.8902 7.78042L20.9402 7.99043C21.2502 9.37043 20.5202 9.90042 19.3202 9.18042L19.0602 9.03042C18.7502 8.85042 18.2502 8.85042 17.9402 9.03042L17.6802 9.18042C16.4702 9.91042 15.7402 9.37043 16.0602 7.99043L16.1102 7.78042C16.1802 7.46042 16.0502 7.00042 15.8202 6.76042L15.4702 6.41043C14.6502 5.58043 14.9202 4.74043 16.0602 4.55043L16.4402 4.49043C16.7402 4.44043 17.1002 4.17042 17.2402 3.89042L17.5202 3.32043C18.0602 2.23043 18.9402 2.23043 19.4802 3.32043Z" fill="#191A1A"/>
<path d="M22 10.17V16C22 19.5 20 21 17 21H7C4 21 2 19.5 2 16V9C2 5.5 4 4 7 4H14.05C13.85 4.22 13.7 4.48 13.61 4.77C13.32 5.67 13.61 6.65001 14.41 7.46001L14.6 7.64999C14.19 9.45999 15.04 10.31 15.43 10.59C15.65 10.75 16.1 11 16.74 11C17.21 11 17.79 10.86 18.46 10.46L18.5 10.44L18.54 10.46C20.12 11.41 21.19 10.87 21.57 10.59C21.69 10.51 21.85 10.37 22 10.17Z" fill="#A0A0A0"/>
<path d="M11.9998 13.3698C11.1598 13.3698 10.3098 13.1098 9.65978 12.5798L6.52978 10.0798C6.20978 9.81978 6.14978 9.34978 6.40978 9.02978C6.66978 8.70978 7.13977 8.64978 7.45977 8.90978L10.5898 11.4098C11.3498 12.0198 12.6398 12.0198 13.3998 11.4098C13.7198 11.1498 14.1898 11.1998 14.4498 11.5298C14.7098 11.8498 14.6598 12.3298 14.3298 12.5798C13.6898 13.1098 12.8398 13.3698 11.9998 13.3698Z" fill="#191A1A"/>
</svg>
